<svg xmlns="http://www.w3.org/2000/svg" viewBox="60 97.8 203.2 203.2" role="img" aria-label="Nossa Farmácia"><g fill="#ffffff"><path d="m111.7 97.8 49.9 51.6 54-51.6z"/><path d="M60 249.2v-104l51.7 54.1z"/><path d="M211.5 300.9H107.6l54-51.7z"/><path d="M263.2 149.4v104l-51.6-54.1z"/></g><g fill="#ffffff" opacity=".7"><path d="M111.6 97.8v101.6l49.9-50z"/><path d="m161.6 249.2-49.9-49.9L60 249.2z"/><path d="m211.5 199.3-49.9 49.9 49.9 51.7z"/><path d="m161.6 149.4 50 49.9 51.6-49.9z"/></g><g fill="#ffffff" opacity=".4"><path d="m215.6 97.8-54 51.6h54z"/><path d="M111.7 199.3v-54.1H60z"/><path d="M161.6 249.2h-54.1v51.7z"/><path d="M211.6 199.3v54.1h51.6z"/></g></svg>
