<svg xml:space="preserve" id="logo" x="0" y="0" viewBox="0 0 1920 800" xmlns="http://www.w3.org/2000/svg" role="img"><style>.st0{fill:#009b77}.st3{fill:#6bbfa3}.st4{fill:#00624a}</style><path d="M186.4 408.2a82.6 82.6 0 0 1 26.6 29.1c6.5 11.9 9.8 24.9 9.8 39v106.2h-36.4V476.2c0-6.1-1.2-11.9-3.5-17.5a47 47 0 0 0-9.7-14.5 45 45 0 0 0-14.4-9.7c-5.4-2.3-11.2-3.5-17.4-3.5a44.8 44.8 0 0 0-31.9 13.2c-4 4.1-7.2 8.9-9.6 14.5-2.4 5.5-3.5 11.4-3.5 17.5v106.3H60V394.8h36.4l.3 13.4q9.6-6.3 21-9.9a82.6 82.6 0 0 1 47.6 0c7.7 2.3 14.7 5.6 21.1 9.9m156.9-12.4a92.4 92.4 0 0 1 85.9 56.8q7.2 16.95 7.2 36.3a92.4 92.4 0 0 1-27.1 66 92.4 92.4 0 0 1-66 27.1c-12.9 0-25.1-2.4-36.3-7.2a95 95 0 0 1-29.7-19.9 92.4 92.4 0 0 1-27.1-66c0-12.9 2.4-25.1 7.2-36.3a95 95 0 0 1 19.9-29.7c8.5-8.5 18.3-15.1 29.7-19.9q16.8-7.2 36.3-7.2m.2 150c7.7 0 15.1-1.5 22-4.4s13-7 18.1-12.2c5.2-5.2 9.2-11.2 12.1-18.2 2.9-6.9 4.4-14.3 4.4-22.1s-1.5-15.1-4.4-22.1-7-13-12.1-18.2c-5.2-5.2-11.2-9.2-18.1-12.2-6.9-2.9-14.3-4.4-22-4.4s-15.1 1.5-22 4.4-13 7-18.1 12.2c-5.2 5.2-9.3 11.2-12.3 18.2-3 6.9-4.6 14.3-4.6 22.1s1.5 15.1 4.6 22.1c3.1 6.9 7.2 13 12.3 18.2 5.2 5.2 11.2 9.2 18.1 12.2 6.9 2.9 14.2 4.4 22 4.4M566.2 496c3.3 4.7 5.9 9.8 7.8 15.4 1.9 5.5 2.7 11.4 2.5 17.5-.2 7.8-2 14.9-5.3 21.5s-7.6 12.4-13.1 17.3c-5.4 4.9-11.8 8.8-19.1 11.5s-14.9 3.9-22.9 3.7c-11.3-.5-21.5-3.4-30.5-8.8a54 54 0 0 1-20.6-21.5l30.3-21.2q1.8 6.3 7.8 10.8c4 2.9 8.7 4.4 14.1 4.4 6.1.2 11.5-1.5 16.1-5.1s6.9-8.2 6.9-13.6c0-1.6-.1-2.8-.3-3.5v-.7q-.3-.75-.3-1.2c0-.4-.1-.8-.4-1.2-1.7-4-4.7-7.3-9.2-9.9-.7-.5-1.8-.9-3.2-1.4l.4-.3c-3.3-1.9-6.9-3.7-10.9-5.5s-8.1-3.6-12.2-5.7c-4.1-2-8.2-4.1-12.2-6.4-4-2.2-7.8-4.9-11.3-7.9v-.4l-1.1-1.1a53 53 0 0 1-11.6-16.4c-2.8-6.2-4.1-12.9-3.9-19.9.2-7.1 1.9-13.6 4.9-19.8 3.1-6.1 7.1-11.4 12.2-15.9s11-8 17.8-10.6 14.1-3.8 21.9-3.5c10.1.5 19.2 3 27.3 7.4q12.15 6.75 19.2 18l-29.6 20.5c-1.4-2.6-3.7-4.8-6.9-6.7S524 433 520 433c-5.4-.2-10.1 1.1-13.9 3.9-3.9 2.8-5.8 6.2-5.8 10.2 0 1.2.1 2 .3 2.5.5 2.6 1.6 4.8 3.5 6.7s4.2 3.4 7.1 4.6c4.5 2.6 9.6 5.2 15.3 7.9 5.8 2.7 11.6 5.7 17.5 9 4.2 1.9 8.5 4.6 12.7 8.1l1.8 1.8c2.3 2 4.9 4.8 7.7 8.3m140.3 0c3.3 4.7 5.9 9.8 7.8 15.4 1.9 5.5 2.7 11.4 2.5 17.5-.2 7.8-2 14.9-5.3 21.5s-7.6 12.4-13.1 17.3c-5.4 4.9-11.8 8.8-19.1 11.5s-14.9 3.9-22.9 3.7c-11.3-.5-21.5-3.4-30.5-8.8a54 54 0 0 1-20.6-21.5l30.4-21.2q1.8 6.3 7.8 10.8c4 2.9 8.7 4.4 14.1 4.4 6.1.2 11.5-1.5 16.1-5.1s6.9-8.2 6.9-13.6c0-1.6-.1-2.8-.3-3.5v-.7c-.2-.5-.4-.9-.4-1.2 0-.4-.1-.8-.4-1.2-1.7-4-4.7-7.3-9.2-9.9-.7-.5-1.8-.9-3.2-1.4l.4-.3c-3.3-1.9-7-3.7-10.9-5.5-4-1.8-8.1-3.6-12.2-5.7-4.1-2-8.2-4.1-12.2-6.4-4-2.2-7.8-4.9-11.3-7.9v-.4l-1.1-1.1a53 53 0 0 1-11.6-16.4c-2.8-6.2-4.1-12.9-3.9-19.9.2-7.1 1.9-13.6 4.9-19.8 3.1-6.1 7.1-11.4 12.2-15.9s11-8 17.8-10.6 14.1-3.8 21.9-3.5c10.1.5 19.2 3 27.3 7.4q12.15 6.75 19.2 18L678 442.4c-1.4-2.6-3.7-4.8-6.9-6.7s-6.8-2.8-10.8-2.8c-5.4-.2-10.1 1.1-13.9 3.9-3.9 2.8-5.8 6.2-5.8 10.2 0 1.2.1 2 .4 2.5.5 2.6 1.6 4.8 3.5 6.7s4.2 3.4 7.1 4.6c4.5 2.6 9.6 5.2 15.4 7.9s11.6 5.7 17.5 9c4.2 1.9 8.5 4.6 12.7 8.1l1.8 1.8c2.1 2.1 4.7 4.9 7.5 8.4m126.4-99.9c12.9 0 25.1 2.5 36.5 7.4a96 96 0 0 1 30 20.1c8.6 8.5 15.3 18.5 20.3 30 4.9 11.5 7.4 23.8 7.4 36.7v91.4h-36.4v-17.1c-8 6.1-16.8 10.8-26.5 14.3-9.6 3.5-20 5.2-31.1 5.2a92 92 0 0 1-36.5-7.4c-11.4-4.9-21.4-11.6-29.8-20.1s-15.2-18.4-20.1-29.8a92 92 0 0 1-7.4-36.5c0-12.9 2.5-25.2 7.4-36.7a94 94 0 0 1 20.1-30c8.4-8.5 18.4-15.2 29.8-20.1 11.3-4.9 23.4-7.4 36.3-7.4m.2 151.8c8 0 15.5-1.5 22.4-4.6s13-7.2 18.2-12.4 9.3-11.3 12.4-18.3 4.6-14.4 4.6-22.2c0-8-1.5-15.6-4.6-22.5-3.1-7-7.2-13.1-12.4-18.3s-11.2-9.3-18.2-12.4-14.4-4.6-22.4-4.6-15.5 1.5-22.4 4.6-13 7.2-18.2 12.4-9.3 11.3-12.4 18.3-4.6 14.5-4.6 22.5c0 7.8 1.5 15.2 4.6 22.2s7.2 13.1 12.4 18.3 11.2 9.4 18.2 12.4a54 54 0 0 0 22.4 4.6" class="st0"/><path d="M60.3 643.7h49v7.6H68.9v31.2h36.7v7.8H68.9v34.9h-8.6zm145.9 55.7-12.6-31.2c-1.6-3.8-3.1-9.5-3.1-9.7-.1.2-1.7 5.9-3.2 9.6l-12.5 31.3zm-16.5-56.6h1.4l34.5 82.3h-9.1l-7.4-18.3h-37.4l-7.3 18.3H156zm118.4 42.9c13.3 0 20.5-5.6 20.5-17.1 0-11.7-7.3-17.3-20.5-17.3h-15.3v34.4zm-24-42h24.4c17 0 29 8 29 24.9 0 12-6.6 19.8-17.1 23l19.9 33.6h-10.2L311.4 693c-1.2.1-2.5.1-3.8.1h-14.9v32h-8.6zm115.7-1h1.2l37.9 47.3 37.6-47.3h1.3v82.5h-8.4v-53.8c0-3.6.4-9 .4-9.2-.2.2-3.2 5.3-5.8 8.4l-24.7 31.2h-1.4l-24.3-31.2c-2.5-3-5.6-7.9-5.9-8.4 0 .1.5 5.6.5 9.2v53.8h-8.4zm175.9-30.4h9.6l-11.1 23.1h-6.6zm10.8 87.1-12.6-31.2c-1.6-3.8-3.1-9.5-3.1-9.7-.1.2-1.7 5.9-3.2 9.6l-12.5 31.3zm-16.4-56.6h1.4l34.5 82.3h-9.1l-7.4-18.3h-37.4l-7.3 18.3h-8.5zm84.3 41.6c0-24.6 18.7-41.7 41.8-41.7 14.4 0 25.4 5.4 32.4 15.8l-6.6 4.8c-5.3-7.8-14-12.8-25.8-12.8-19.1 0-32.8 14.5-32.8 33.9s13.8 33.9 32.8 33.9c11.9 0 21-5.2 26.8-13.7l6.7 4.7c-7.2 10.5-18.9 16.8-33.6 16.8-23 0-41.7-17.1-41.7-41.7m135-40.7h8.8v81.5h-8.8zm117.8 55.7-12.6-31.2c-1.6-3.8-3.1-9.5-3.1-9.7-.1.2-1.7 5.9-3.2 9.6l-12.5 31.3zm-16.4-56.6h1.4l34.5 82.3h-9.1l-7.4-18.3h-37.4l-7.3 18.3H857z" style="fill:#48676b"/><path d="M1218.8 560.2c0-33.3 24.1-57 57.2-57 17 0 30.5 4.8 39.5 14.9l-11.6 11.6c-6.4-6.7-14.6-11-27.9-11-23.3 0-39.5 17.7-39.5 41.5s16.4 41.6 41.8 41.6c11.3 0 21.1-3 27.4-7.2v-20.8h-30v-15.1h45.9v44.4c-7.2 6.6-22.6 14.3-43.3 14.3-34.9 0-59.5-23.9-59.5-57.2m151.1-55.7h37.4c22.9 0 40.5 10.8 40.5 35.4 0 16.5-9 27.2-22.6 32l26.2 44.1h-19.8l-24.1-41.3h-20.2V616h-17.4zm36.7 55.6c14.7 0 23.3-6.1 23.3-20.2 0-14.4-8.7-20.2-23.3-20.2h-19.3V560h19.3zm86.5 16.7v-72.3h17.4v71.3c0 18 8.8 26.1 25.1 26.1 16.2 0 25.2-8 25.2-26.1v-71.3h17.2v72.3c0 27-18.4 40.6-42.4 40.6-24.3 0-42.5-13.6-42.5-40.6m135.7-72.3h35.9c23.3 0 40.5 11.5 40.5 35.9 0 24.3-17.2 36-40.5 36h-18.5V616h-17.4zm35.2 56.7c15.1 0 23.4-6.7 23.4-20.8 0-14.3-8.5-20.6-23.4-20.6h-17.9v41.5h17.9zm81.1-1c0-33.3 25.6-57.2 57.5-57.2 31.8 0 57.4 23.9 57.4 57.2s-25.6 57.2-57.4 57.2c-31.9 0-57.5-23.9-57.5-57.2m97.2 0c0-23.8-16.4-41.6-39.7-41.6s-39.8 17.9-39.8 41.6c0 23.8 16.5 41.6 39.8 41.6 23.3.1 39.7-17.8 39.7-41.6" class="st0"/><path d="M1072.8 394.7V726" style="fill:none;stroke:#48676b;stroke-width:8.3296;stroke-miterlimit:10"/><path id="XMLID_29_" d="m434.1 73.9 59.4 61.4 64.2-61.4z" class="st0"/><path id="XMLID_28_" d="M434.1 73.9v120.7l59.3-59.3z" class="st3"/><path id="XMLID_27_" d="m557.7 73.9-64.2 61.4h64.2z" class="st4"/><path id="XMLID_26_" d="M372.7 253.9V130.3l61.4 64.2z" class="st0"/><path id="XMLID_22_" d="m493.5 253.9-59.4-59.4-61.4 59.4z" class="st3"/><path id="XMLID_21_" d="M434.1 194.5v-64.2h-61.4z" class="st4"/><path id="XMLID_20_" d="M552.8 315.3H429.2l64.3-61.4z" class="st0"/><path id="XMLID_19_" d="m552.8 194.6-59.3 59.3 59.3 61.4z" class="st3"/><path id="XMLID_18_" d="M493.5 253.9h-64.3v61.4z" class="st4"/><path id="XMLID_17_" d="M614.3 135.2v123.6l-61.4-64.2z" class="st0"/><path id="XMLID_16_" d="m493.5 135.2 59.4 59.4 61.4-59.4z" class="st3"/><path id="XMLID_15_" d="M552.9 194.6v64.2h61.4z" class="st4"/></svg>