<svg xml:space="preserve" id="logo" x="0" y="0" viewBox="0 0 1920 500" xmlns="http://www.w3.org/2000/svg" role="img"><style>.st0{fill:#009b77}.st3{fill:#6bbfa3}.st4{fill:#00624a}</style><path d="M1320.5 262.7c0-28 20.3-48 48.1-48 14.3 0 25.6 4 33.2 12.5l-9.8 9.8c-5.4-5.7-12.3-9.2-23.4-9.2-19.6 0-33.2 14.9-33.2 34.9s13.8 35 35.2 35c9.5 0 17.8-2.5 23-6.1v-17.5h-25.2v-12.7h38.6v37.4c-6.1 5.5-19 12-36.4 12-29.4 0-50.1-20.1-50.1-48.1m127.1-46.9h31.4c19.3 0 34.1 9.1 34.1 29.8 0 13.9-7.6 22.9-19 26.9l22.1 37.1h-16.7l-20.3-34.7h-17v34.7h-14.6zm30.9 46.7c12.4 0 19.6-5.1 19.6-17 0-12.1-7.3-17-19.6-17h-16.3v33.9h16.3zm72.8 14.1v-60.8h14.6v60c0 15.2 7.4 21.9 21.1 21.9 13.6 0 21.2-6.8 21.2-21.9v-60h14.5v60.8c0 22.8-15.4 34.2-35.7 34.2-20.4 0-35.7-11.5-35.7-34.2m114.2-60.8h30.2c19.6 0 34.1 9.7 34.1 30.2 0 20.4-14.5 30.3-34.1 30.3h-15.6v33.2h-14.6zm29.6 47.7c12.7 0 19.7-5.7 19.7-17.5 0-12-7.2-17.4-19.7-17.4h-15v34.9zm68.2-.8c0-28 21.5-48.1 48.4-48.1 26.7 0 48.3 20.1 48.3 48.1s-21.5 48.1-48.3 48.1-48.4-20.1-48.4-48.1m81.8 0c0-20-13.8-35-33.4-35s-33.5 15-33.5 35 13.9 35 33.5 35 33.4-15 33.4-35" class="st0"/><path d="M1197.6 123.3v278.9" style="fill:none;stroke:#48676b;stroke-width:7.0082;stroke-miterlimit:10"/><path d="M451.9 134.7c9.4 6.3 16.9 14.5 22.4 24.5s8.2 20.9 8.2 32.8v89.4h-30.6V192q0-7.65-3-14.7c-3-7.05-4.7-8.7-8.2-12.2s-7.5-6.2-12.1-8.2-9.4-3-14.6-3-10.1 1-14.8 3-8.7 4.7-12.1 8.2-6.1 7.5-8 12.2q-3 7.05-3 14.7v89.4h-30.6v-158h30.6l.2 11.3c5.3-3.6 11.2-6.3 17.7-8.3a67 67 0 0 1 20.1-3q10.35 0 20.1 3c6.4 2 12.3 4.7 17.7 8.3m132-10.4c10.9 0 21.1 2 30.6 6.1q14.25 6.15 24.9 16.8c7.1 7.1 12.7 15.4 16.8 25 4.1 9.5 6.1 19.7 6.1 30.6s-2 21.1-6.1 30.6q-6.15 14.25-16.8 24.9a79 79 0 0 1-24.9 16.8c-9.5 4.1-19.7 6.1-30.6 6.1s-21.1-2-30.6-6.1-17.8-9.7-25-16.8a79 79 0 0 1-16.8-24.9c-4.1-9.5-6.1-19.7-6.1-30.6s2-21.1 6.1-30.6 9.6-17.8 16.8-25c7.1-7.1 15.4-12.7 25-16.8 9.5-4.1 19.7-6.1 30.6-6.1m.1 126.2c6.5 0 12.7-1.2 18.5-3.7s10.9-5.9 15.2-10.2c4.3-4.4 7.7-9.4 10.2-15.3 2.5-5.8 3.7-12 3.7-18.6s-1.2-12.7-3.7-18.6q-3.75-8.7-10.2-15.3a45 45 0 0 0-15.2-10.2c-5.8-2.5-12-3.7-18.5-3.7s-12.7 1.2-18.5 3.7-10.9 5.9-15.2 10.2c-4.3 4.4-7.8 9.5-10.4 15.3s-3.8 12-3.8 18.6 1.3 12.7 3.8 18.6c2.6 5.8 6 10.9 10.4 15.3 4.3 4.4 9.4 7.8 15.2 10.2 5.8 2.5 12 3.7 18.5 3.7m187.4-41.8c2.8 4 4.9 8.3 6.5 12.9q2.4 7.05 2.1 14.7c-.2 6.5-1.7 12.6-4.5 18.1a51 51 0 0 1-11 14.6c-4.6 4.2-9.9 7.4-16 9.6-6.1 2.3-12.6 3.3-19.3 3.1-9.5-.4-18.1-2.9-25.7-7.4-7.6-4.6-13.4-10.6-17.4-18.1l25.5-17.8c1 3.6 3.2 6.6 6.5 9.1 3.4 2.5 7.3 3.7 11.9 3.7 5.1.2 9.6-1.2 13.5-4.3s5.8-6.9 5.8-11.4q0-2.1-.3-3v-.6c-.2-.4-.3-.7-.3-1s-.1-.6-.3-1c-1.4-3.4-4-6.1-7.7-8.3q-.9-.6-2.7-1.2l.3-.3c-2.8-1.6-5.8-3.1-9.2-4.6q-5.1-2.25-10.2-4.8c-3.5-1.7-6.9-3.5-10.2-5.3-3.4-1.9-6.5-4.1-9.5-6.7v-.3l-.9-.9c-4.2-4-7.4-8.6-9.8-13.8q-3.6-7.8-3.3-16.8c.2-5.9 1.6-11.5 4.2-16.6s6-9.6 10.2-13.4c4.3-3.8 9.3-6.7 15-8.9s11.9-3.2 18.4-3c8.5.4 16.2 2.5 23 6.2 6.8 3.8 12.2 8.8 16.2 15.2l-24.9 17.2c-1.2-2.2-3.1-4.1-5.8-5.6-2.7-1.6-5.7-2.4-9.1-2.4q-6.9-.3-11.7 3.3c-3.3 2.4-4.9 5.2-4.9 8.6q0 1.5.3 2.1c.4 2.2 1.4 4.1 3 5.6 1.6 1.6 3.6 2.9 5.9 3.9 3.8 2.2 8.1 4.4 12.9 6.7s9.7 4.8 14.7 7.6c3.6 1.6 7.1 3.9 10.7 6.8l1.5 1.5c2.1 1.6 4.2 4 6.6 7m118.1 0c2.8 4 4.9 8.3 6.5 12.9q2.4 7.05 2.1 14.7c-.2 6.5-1.7 12.6-4.5 18.1a51 51 0 0 1-11 14.6c-4.6 4.2-9.9 7.4-16 9.6-6.1 2.3-12.6 3.3-19.3 3.1-9.5-.4-18.1-2.9-25.7-7.4-7.6-4.6-13.4-10.6-17.4-18.1l25.5-17.8c1 3.6 3.2 6.6 6.5 9.1 3.4 2.5 7.3 3.7 11.9 3.7 5.1.2 9.6-1.2 13.5-4.3s5.8-6.9 5.8-11.4q0-2.1-.3-3v-.6c-.2-.4-.3-.7-.3-1s-.1-.6-.3-1c-1.4-3.4-4-6.1-7.7-8.3q-.9-.6-2.7-1.2l.3-.3c-2.8-1.6-5.8-3.1-9.2-4.6q-5.1-2.25-10.2-4.8c-3.5-1.7-6.9-3.5-10.2-5.3-3.4-1.9-6.5-4.1-9.5-6.7v-.3l-.9-.9c-4.2-4-7.4-8.6-9.8-13.8q-3.6-7.8-3.3-16.8c.2-5.9 1.6-11.5 4.2-16.6s6-9.6 10.2-13.4c4.3-3.8 9.3-6.7 15-8.9s11.9-3.2 18.4-3c8.5.4 16.2 2.5 23 6.2 6.8 3.8 12.2 8.8 16.2 15.2l-25 17.2c-1.2-2.2-3.1-4.1-5.8-5.6-2.7-1.6-5.7-2.4-9.1-2.4q-6.9-.3-11.7 3.3c-3.3 2.4-4.9 5.2-4.9 8.6q0 1.5.3 2.1c.4 2.2 1.4 4.1 3 5.6 1.6 1.6 3.6 2.9 5.9 3.9 3.8 2.2 8.1 4.4 12.9 6.7 4.9 2.3 9.7 4.8 14.7 7.6 3.6 1.6 7.1 3.9 10.7 6.8l1.5 1.5c2.2 1.6 4.3 4 6.7 7m106.4-84.1c10.9 0 21.1 2.1 30.7 6.2 9.6 4.2 18 9.8 25.2 16.9a77 77 0 0 1 17 25.2c4.1 9.7 6.2 20 6.2 30.9v76.9h-30.6v-14.4c-6.7 5.1-14.2 9.1-22.3 12.1-8.1 2.9-16.8 4.4-26.1 4.4-10.9 0-21.1-2.1-30.7-6.2-9.6-4.2-18-9.8-25.1-16.9a79 79 0 0 1-16.9-25.1c-4.2-9.6-6.2-19.8-6.2-30.7s2.1-21.2 6.2-30.9c4.2-9.7 9.8-18.1 16.9-25.2s15.5-12.8 25-16.9c9.6-4.2 19.8-6.3 30.7-6.3m.1 127.7q10.05 0 18.9-3.9 8.7-3.9 15.3-10.5c4.4-4.4 7.8-9.5 10.4-15.4s3.9-12.1 3.9-18.7c0-6.8-1.3-13.1-3.9-19a49.8 49.8 0 0 0-25.7-25.9q-8.7-3.9-18.9-3.9-10.05 0-18.9 3.9-8.7 3.9-15.3 10.5c-4.4 4.4-7.8 9.5-10.4 15.4s-3.9 12.2-3.9 19c0 6.6 1.3 12.8 3.9 18.7a49.8 49.8 0 0 0 25.7 25.9q8.85 3.9 18.9 3.9" class="st0"/><path d="M345.8 332.9H387v6.4h-34v26.2h30.9v6.6H353v29.3h-7.2zm122.7 46.9-10.6-26.2c-1.3-3.2-2.6-8-2.6-8.2-.1.2-1.4 4.9-2.7 8.1l-10.5 26.3zm-13.8-47.6h1.2l29 69.3h-7.7L471 386h-31.5l-6.1 15.4h-7.2zm99.5 36.1c11.2 0 17.2-4.7 17.2-14.4 0-9.9-6.1-14.5-17.2-14.5h-12.9v28.9zm-20.1-35.4h20.6c14.3 0 24.4 6.8 24.4 21 0 10.1-5.5 16.6-14.4 19.4l16.7 28.2h-8.6l-15.7-27c-1 .1-2.1.1-3.2.1h-12.5v26.9h-7.3zm97.3-.8h1l31.9 39.8 31.7-39.8h1.1v69.4H690v-45.3c0-3 .3-7.6.3-7.8-.2.2-2.7 4.4-4.8 7.1l-20.8 26.2h-1.2L643 355.5c-2.1-2.5-4.7-6.7-4.9-7.1 0 .1.4 4.7.4 7.8v45.3h-7.1zm148.1-25.7h8.1l-9.4 19.5h-5.5zm9 73.4-10.6-26.2c-1.3-3.2-2.6-8-2.6-8.2-.1.2-1.4 4.9-2.7 8.1l-10.5 26.3zm-13.8-47.6h1.2l29 69.3h-7.7L791 386h-31.5l-6.1 15.4h-7.2zm70.9 34.9c0-20.7 15.7-35.1 35.2-35.1 12.1 0 21.4 4.5 27.2 13.3l-5.5 4c-4.4-6.6-11.8-10.8-21.7-10.8-16 0-27.6 12.2-27.6 28.5s11.6 28.5 27.6 28.5c10 0 17.6-4.3 22.6-11.5l5.6 3.9c-6 8.9-15.9 14.1-28.2 14.1-19.4.2-35.2-14.2-35.2-34.9m113.6-34.2h7.4v68.6h-7.4zm99.1 46.9-10.6-26.2c-1.3-3.2-2.6-8-2.6-8.2-.1.2-1.4 4.9-2.7 8.1l-10.5 26.3zm-13.8-47.6h1.2l29 69.3h-7.7l-6.3-15.4h-31.5l-6.2 15.4h-7.2z" style="fill:#48676b"/><path id="XMLID_41_" d="m111.7 97.8 49.9 51.6 54-51.6z" class="st0"/><path id="XMLID_40_" d="M111.6 97.8v101.6l49.9-50z" class="st3"/><path id="XMLID_39_" d="m215.6 97.8-54 51.6h54z" class="st4"/><path id="XMLID_38_" d="M60 249.2v-104l51.7 54.1z" class="st0"/><path id="XMLID_37_" d="m161.6 249.2-49.9-49.9L60 249.2z" class="st3"/><path id="XMLID_36_" d="M111.7 199.3v-54.1H60z" class="st4"/><path id="XMLID_35_" d="M211.5 300.9H107.6l54-51.7z" class="st0"/><path id="XMLID_34_" d="m211.5 199.3-49.9 49.9 49.9 51.7z" class="st3"/><path id="XMLID_33_" d="M161.6 249.2h-54.1v51.7z" class="st4"/><path id="XMLID_32_" d="M263.2 149.4v104l-51.6-54.1z" class="st0"/><path id="XMLID_31_" d="m161.6 149.4 50 49.9 51.6-49.9z" class="st3"/><path id="XMLID_30_" d="M211.6 199.3v54.1h51.6z" class="st4"/></svg>