<?xml version="1.0" encoding="utf-8"?>
<!-- Generator: Adobe Illustrator 24.0.0, SVG Export Plug-In . SVG Version: 6.00 Build 0)  -->
<svg version="1.1" id="logo" xmlns="http://www.w3.org/2000/svg" xmlns:xlink="http://www.w3.org/1999/xlink" x="0px" y="0px"
	 viewBox="0 0 1920 800" style="enable-background:new 0 0 1920 800;" xml:space="preserve">
<style type="text/css">
	.st0{fill:#009B77;}
	.st1{fill:#48676B;}
	.st2{fill:none;stroke:#48676B;stroke-width:8.3296;stroke-miterlimit:10;}
	.st3{fill:#6BBFA3;}
	.st4{fill:#00624A;}
</style>
<g>
	<g>
		<g>
			<path class="st0" d="M186.4,408.2c11.2,7.5,20,17.2,26.6,29.1c6.5,11.9,9.8,24.9,9.8,39v106.2h-36.4V544v-67.8
				c0-6.1-1.2-11.9-3.5-17.5c-2.4-5.5-5.6-10.4-9.7-14.5c-4.1-4.1-8.9-7.4-14.4-9.7c-5.4-2.3-11.2-3.5-17.4-3.5s-12,1.2-17.5,3.5
				c-5.5,2.3-10.3,5.6-14.4,9.7c-4,4.1-7.2,8.9-9.6,14.5c-2.4,5.5-3.5,11.4-3.5,17.5V544v38.5H60V476.3v-81.5h36.4l0.3,13.4
				c6.4-4.2,13.4-7.5,21-9.9c7.7-2.3,15.6-3.5,23.8-3.5c8.2,0,16.2,1.2,23.8,3.5C173,400.6,180,403.9,186.4,408.2"/>
			<path class="st0" d="M343.3,395.8c12.9,0,25.1,2.4,36.4,7.2c11.3,4.8,21.2,11.5,29.6,19.9c8.5,8.5,15.1,18.4,19.9,29.7
				c4.8,11.3,7.2,23.4,7.2,36.3c0,12.9-2.4,25.1-7.2,36.4c-4.8,11.3-11.5,21.2-19.9,29.6c-8.5,8.5-18.3,15.1-29.6,19.9
				c-11.3,4.8-23.4,7.2-36.4,7.2c-12.9,0-25.1-2.4-36.3-7.2c-11.3-4.8-21.2-11.5-29.7-19.9c-8.5-8.5-15.1-18.3-19.9-29.6
				c-4.8-11.3-7.2-23.4-7.2-36.4c0-12.9,2.4-25.1,7.2-36.3c4.8-11.3,11.5-21.2,19.9-29.7c8.5-8.5,18.3-15.1,29.7-19.9
				C318.2,398.2,330.3,395.8,343.3,395.8 M343.5,545.8c7.7,0,15.1-1.5,22-4.4c6.9-2.9,13-7,18.1-12.2c5.2-5.2,9.2-11.2,12.1-18.2
				c2.9-6.9,4.4-14.3,4.4-22.1s-1.5-15.1-4.4-22.1s-7-13-12.1-18.2c-5.2-5.2-11.2-9.2-18.1-12.2c-6.9-2.9-14.3-4.4-22-4.4
				c-7.7,0-15.1,1.5-22,4.4c-6.9,2.9-13,7-18.1,12.2c-5.2,5.2-9.3,11.2-12.3,18.2c-3,6.9-4.6,14.3-4.6,22.1s1.5,15.1,4.6,22.1
				c3.1,6.9,7.2,13,12.3,18.2c5.2,5.2,11.2,9.2,18.1,12.2C328.4,544.3,335.7,545.8,343.5,545.8"/>
			<path class="st0" d="M566.2,496c3.3,4.7,5.9,9.8,7.8,15.4c1.9,5.5,2.7,11.4,2.5,17.5c-0.2,7.8-2,14.9-5.3,21.5
				c-3.3,6.6-7.6,12.4-13.1,17.3c-5.4,4.9-11.8,8.8-19.1,11.5c-7.3,2.7-14.9,3.9-22.9,3.7c-11.3-0.5-21.5-3.4-30.5-8.8
				c-9.1-5.4-15.9-12.6-20.6-21.5l30.3-21.2c1.2,4.2,3.8,7.8,7.8,10.8c4,2.9,8.7,4.4,14.1,4.4c6.1,0.2,11.5-1.5,16.1-5.1
				c4.6-3.6,6.9-8.2,6.9-13.6c0-1.6-0.1-2.8-0.3-3.5v-0.7c-0.2-0.5-0.3-0.9-0.3-1.2c0-0.4-0.1-0.8-0.4-1.2c-1.7-4-4.7-7.3-9.2-9.9
				c-0.7-0.5-1.8-0.9-3.2-1.4l0.4-0.3c-3.3-1.9-6.9-3.7-10.9-5.5c-4-1.8-8.1-3.6-12.2-5.7c-4.1-2-8.2-4.1-12.2-6.4
				c-4-2.2-7.8-4.9-11.3-7.9v-0.4l-1.1-1.1c-4.9-4.7-8.8-10.2-11.6-16.4c-2.8-6.2-4.1-12.9-3.9-19.9c0.2-7.1,1.9-13.6,4.9-19.8
				c3.1-6.1,7.1-11.4,12.2-15.9c5.1-4.5,11-8,17.8-10.6c6.8-2.6,14.1-3.8,21.9-3.5c10.1,0.5,19.2,3,27.3,7.4
				c8.1,4.5,14.5,10.5,19.2,18l-29.6,20.5c-1.4-2.6-3.7-4.8-6.9-6.7c-3.2-1.9-6.8-2.8-10.8-2.8c-5.4-0.2-10.1,1.1-13.9,3.9
				c-3.9,2.8-5.8,6.2-5.8,10.2c0,1.2,0.1,2,0.3,2.5c0.5,2.6,1.6,4.8,3.5,6.7c1.9,1.9,4.2,3.4,7.1,4.6c4.5,2.6,9.6,5.2,15.3,7.9
				c5.8,2.7,11.6,5.7,17.5,9c4.2,1.9,8.5,4.6,12.7,8.1l1.8,1.8C560.8,489.7,563.4,492.5,566.2,496"/>
			<path class="st0" d="M706.5,496c3.3,4.7,5.9,9.8,7.8,15.4c1.9,5.5,2.7,11.4,2.5,17.5c-0.2,7.8-2,14.9-5.3,21.5
				c-3.3,6.6-7.6,12.4-13.1,17.3c-5.4,4.9-11.8,8.8-19.1,11.5c-7.3,2.7-14.9,3.9-22.9,3.7c-11.3-0.5-21.5-3.4-30.5-8.8
				c-9.1-5.4-15.9-12.6-20.6-21.5l30.4-21.2c1.2,4.2,3.8,7.8,7.8,10.8c4,2.9,8.7,4.4,14.1,4.4c6.1,0.2,11.5-1.5,16.1-5.1
				c4.6-3.6,6.9-8.2,6.9-13.6c0-1.6-0.1-2.8-0.3-3.5v-0.7c-0.2-0.5-0.4-0.9-0.4-1.2c0-0.4-0.1-0.8-0.4-1.2c-1.7-4-4.7-7.3-9.2-9.9
				c-0.7-0.5-1.8-0.9-3.2-1.4l0.4-0.3c-3.3-1.9-7-3.7-10.9-5.5c-4-1.8-8.1-3.6-12.2-5.7c-4.1-2-8.2-4.1-12.2-6.4
				c-4-2.2-7.8-4.9-11.3-7.9v-0.4l-1.1-1.1c-4.9-4.7-8.8-10.2-11.6-16.4c-2.8-6.2-4.1-12.9-3.9-19.9c0.2-7.1,1.9-13.6,4.9-19.8
				c3.1-6.1,7.1-11.4,12.2-15.9c5.1-4.5,11-8,17.8-10.6c6.8-2.6,14.1-3.8,21.9-3.5c10.1,0.5,19.2,3,27.3,7.4
				c8.1,4.5,14.5,10.5,19.2,18L678,442.4c-1.4-2.6-3.7-4.8-6.9-6.7c-3.2-1.9-6.8-2.8-10.8-2.8c-5.4-0.2-10.1,1.1-13.9,3.9
				c-3.9,2.8-5.8,6.2-5.8,10.2c0,1.2,0.1,2,0.4,2.5c0.5,2.6,1.6,4.8,3.5,6.7c1.9,1.9,4.2,3.4,7.1,4.6c4.5,2.6,9.6,5.2,15.4,7.9
				c5.8,2.7,11.6,5.7,17.5,9c4.2,1.9,8.5,4.6,12.7,8.1l1.8,1.8C701.1,489.7,703.7,492.5,706.5,496"/>
			<path class="st0" d="M832.9,396.1c12.9,0,25.1,2.5,36.5,7.4c11.4,4.9,21.4,11.6,30,20.1c8.6,8.5,15.3,18.5,20.3,30
				c4.9,11.5,7.4,23.8,7.4,36.7v91.4h-36.4v-17.1c-8,6.1-16.8,10.8-26.5,14.3c-9.6,3.5-20,5.2-31.1,5.2c-12.9,0-25.1-2.5-36.5-7.4
				c-11.4-4.9-21.4-11.6-29.8-20.1s-15.2-18.4-20.1-29.8c-4.9-11.4-7.4-23.6-7.4-36.5c0-12.9,2.5-25.2,7.4-36.7
				c4.9-11.5,11.6-21.5,20.1-30c8.4-8.5,18.4-15.2,29.8-20.1C807.9,398.6,820,396.1,832.9,396.1 M833.1,547.9c8,0,15.5-1.5,22.4-4.6
				c6.9-3.1,13-7.2,18.2-12.4c5.2-5.2,9.3-11.3,12.4-18.3c3.1-7,4.6-14.4,4.6-22.2c0-8-1.5-15.6-4.6-22.5c-3.1-7-7.2-13.1-12.4-18.3
				c-5.2-5.2-11.2-9.3-18.2-12.4c-7-3.1-14.4-4.6-22.4-4.6c-8,0-15.5,1.5-22.4,4.6c-6.9,3.1-13,7.2-18.2,12.4
				c-5.2,5.2-9.3,11.3-12.4,18.3c-3.1,7-4.6,14.5-4.6,22.5c0,7.8,1.5,15.2,4.6,22.2c3.1,7,7.2,13.1,12.4,18.3
				c5.2,5.2,11.2,9.4,18.2,12.4C817.6,546.4,825.1,547.9,833.1,547.9"/>
		</g>
		<g>
			<polygon class="st1" points="60.3,643.7 109.3,643.7 109.3,651.3 68.9,651.3 68.9,682.5 105.6,682.5 105.6,690.3 68.9,690.3 
				68.9,725.2 60.3,725.2 			"/>
			<path class="st1" d="M206.2,699.4l-12.6-31.2c-1.6-3.8-3.1-9.5-3.1-9.7c-0.1,0.2-1.7,5.9-3.2,9.6l-12.5,31.3H206.2z M189.7,642.8
				h1.4l34.5,82.3h-9.1l-7.4-18.3h-37.4l-7.3,18.3H156L189.7,642.8z"/>
			<path class="st1" d="M308.1,685.7c13.3,0,20.5-5.6,20.5-17.1c0-11.7-7.3-17.3-20.5-17.3h-15.3v34.4H308.1z M284.1,643.7h24.4
				c17,0,29,8,29,24.9c0,12-6.6,19.8-17.1,23l19.9,33.6h-10.2L311.4,693c-1.2,0.1-2.5,0.1-3.8,0.1h-14.9v32h-8.6V643.7z"/>
			<path class="st1" d="M399.8,642.7h1.2l37.9,47.3l37.6-47.3h1.3v82.5h-8.4v-53.8c0-3.6,0.4-9,0.4-9.2c-0.2,0.2-3.2,5.3-5.8,8.4
				l-24.7,31.2h-1.4l-24.3-31.2c-2.5-3-5.6-7.9-5.9-8.4c0,0.1,0.5,5.6,0.5,9.2v53.8h-8.4V642.7z"/>
			<path class="st1" d="M575.7,612.3h9.6l-11.1,23.1h-6.6L575.7,612.3z M586.5,699.4l-12.6-31.2c-1.6-3.8-3.1-9.5-3.1-9.7
				c-0.1,0.2-1.7,5.9-3.2,9.6l-12.5,31.3H586.5z M570.1,642.8h1.4l34.5,82.3h-9.1l-7.4-18.3h-37.4l-7.3,18.3h-8.5L570.1,642.8z"/>
			<path class="st1" d="M654.4,684.4c0-24.6,18.7-41.7,41.8-41.7c14.4,0,25.4,5.4,32.4,15.8l-6.6,4.8c-5.3-7.8-14-12.8-25.8-12.8
				c-19.1,0-32.8,14.5-32.8,33.9c0,19.4,13.8,33.9,32.8,33.9c11.9,0,21-5.2,26.8-13.7l6.7,4.7c-7.2,10.5-18.9,16.8-33.6,16.8
				C673.1,726.1,654.4,709,654.4,684.4"/>
			<rect x="789.4" y="643.7" class="st1" width="8.8" height="81.5"/>
			<path class="st1" d="M907.2,699.4l-12.6-31.2c-1.6-3.8-3.1-9.5-3.1-9.7c-0.1,0.2-1.7,5.9-3.2,9.6l-12.5,31.3H907.2z M890.8,642.8
				h1.4l34.5,82.3h-9.1l-7.4-18.3h-37.4l-7.3,18.3H857L890.8,642.8z"/>
		</g>
	</g>
	<g>
		<path class="st0" d="M1218.8,560.2c0-33.3,24.1-57,57.2-57c17,0,30.5,4.8,39.5,14.9l-11.6,11.6c-6.4-6.7-14.6-11-27.9-11
			c-23.3,0-39.5,17.7-39.5,41.5c0,23.8,16.4,41.6,41.8,41.6c11.3,0,21.1-3,27.4-7.2v-20.8h-30v-15.1h45.9v44.4
			c-7.2,6.6-22.6,14.3-43.3,14.3C1243.4,617.4,1218.8,593.5,1218.8,560.2z"/>
		<path class="st0" d="M1369.9,504.5h37.4c22.9,0,40.5,10.8,40.5,35.4c0,16.5-9,27.2-22.6,32l26.2,44.1h-19.8l-24.1-41.3h-20.2V616
			h-17.4V504.5z M1406.6,560.1c14.7,0,23.3-6.1,23.3-20.2c0-14.4-8.7-20.2-23.3-20.2h-19.3v40.3H1406.6z"/>
		<path class="st0" d="M1493.1,576.8v-72.3h17.4v71.3c0,18,8.8,26.1,25.1,26.1c16.2,0,25.2-8,25.2-26.1v-71.3h17.2v72.3
			c0,27-18.4,40.6-42.4,40.6C1511.3,617.4,1493.1,603.8,1493.1,576.8z"/>
		<path class="st0" d="M1628.8,504.5h35.9c23.3,0,40.5,11.5,40.5,35.9c0,24.3-17.2,36-40.5,36h-18.5V616h-17.4V504.5z M1664,561.2
			c15.1,0,23.4-6.7,23.4-20.8c0-14.3-8.5-20.6-23.4-20.6h-17.9v41.5H1664z"/>
		<path class="st0" d="M1745.1,560.2c0-33.3,25.6-57.2,57.5-57.2c31.8,0,57.4,23.9,57.4,57.2c0,33.3-25.6,57.2-57.4,57.2
			C1770.7,617.4,1745.1,593.5,1745.1,560.2z M1842.3,560.2c0-23.8-16.4-41.6-39.7-41.6c-23.3,0-39.8,17.9-39.8,41.6
			c0,23.8,16.5,41.6,39.8,41.6C1825.9,601.9,1842.3,584,1842.3,560.2z"/>
	</g>
	<line class="st2" x1="1072.8" y1="394.7" x2="1072.8" y2="726"/>
	<g>
		<polygon id="XMLID_29_" class="st0" points="434.1,73.9 493.5,135.3 557.7,73.9 		"/>
		<polygon id="XMLID_28_" class="st3" points="434.1,73.9 434.1,194.6 493.4,135.3 		"/>
		<polygon id="XMLID_27_" class="st4" points="557.7,73.9 493.5,135.3 557.7,135.3 		"/>
		<polygon id="XMLID_26_" class="st0" points="372.7,253.9 372.7,130.3 434.1,194.5 		"/>
		<polygon id="XMLID_22_" class="st3" points="493.5,253.9 434.1,194.5 372.7,253.9 		"/>
		<polygon id="XMLID_21_" class="st4" points="434.1,194.5 434.1,130.3 372.7,130.3 		"/>
		<polygon id="XMLID_20_" class="st0" points="552.8,315.3 429.2,315.3 493.5,253.9 		"/>
		<polygon id="XMLID_19_" class="st3" points="552.8,194.6 493.5,253.9 552.8,315.3 		"/>
		<polygon id="XMLID_18_" class="st4" points="493.5,253.9 429.2,253.9 429.2,315.3 		"/>
		<polygon id="XMLID_17_" class="st0" points="614.3,135.2 614.3,258.8 552.9,194.6 		"/>
		<polygon id="XMLID_16_" class="st3" points="493.5,135.2 552.9,194.6 614.3,135.2 		"/>
		<polygon id="XMLID_15_" class="st4" points="552.9,194.6 552.9,258.8 614.3,258.8 		"/>
	</g>
</g>
</svg>
