<?xml version="1.0" encoding="utf-8"?>
<!-- Generator: Adobe Illustrator 24.0.0, SVG Export Plug-In . SVG Version: 6.00 Build 0)  -->
<svg version="1.1" id="logo" xmlns="http://www.w3.org/2000/svg" xmlns:xlink="http://www.w3.org/1999/xlink" x="0px" y="0px"
	 viewBox="0 0 1920 500" style="enable-background:new 0 0 1920 500;" xml:space="preserve">
<style type="text/css">
	.st0{fill:#009B77;}
	.st1{fill:none;stroke:#48676B;stroke-width:7.0082;stroke-miterlimit:10;}
	.st2{fill:#48676B;}
	.st3{fill:#6BBFA3;}
	.st4{fill:#00624A;}
</style>
<g>
	<g>
		<path class="st0" d="M1320.5,262.7c0-28,20.3-48,48.1-48c14.3,0,25.6,4,33.2,12.5l-9.8,9.8c-5.4-5.7-12.3-9.2-23.4-9.2
			c-19.6,0-33.2,14.9-33.2,34.9s13.8,35,35.2,35c9.5,0,17.8-2.5,23-6.1v-17.5h-25.2v-12.7h38.6v37.4c-6.1,5.5-19,12-36.4,12
			C1341.2,310.8,1320.5,290.7,1320.5,262.7z"/>
		<path class="st0" d="M1447.6,215.8h31.4c19.3,0,34.1,9.1,34.1,29.8c0,13.9-7.6,22.9-19,26.9l22.1,37.1h-16.7l-20.3-34.7h-17v34.7
			h-14.6V215.8z M1478.5,262.5c12.4,0,19.6-5.1,19.6-17c0-12.1-7.3-17-19.6-17h-16.3v33.9H1478.5z"/>
		<path class="st0" d="M1551.3,276.6v-60.8h14.6v60c0,15.2,7.4,21.9,21.1,21.9c13.6,0,21.2-6.8,21.2-21.9v-60h14.5v60.8
			c0,22.8-15.4,34.2-35.7,34.2C1566.6,310.8,1551.3,299.3,1551.3,276.6z"/>
		<path class="st0" d="M1665.5,215.8h30.2c19.6,0,34.1,9.7,34.1,30.2c0,20.4-14.5,30.3-34.1,30.3h-15.6v33.2h-14.6V215.8z
			 M1695.1,263.5c12.7,0,19.7-5.7,19.7-17.5c0-12-7.2-17.4-19.7-17.4h-15v34.9H1695.1z"/>
		<path class="st0" d="M1763.3,262.7c0-28,21.5-48.1,48.4-48.1c26.7,0,48.3,20.1,48.3,48.1c0,28-21.5,48.1-48.3,48.1
			C1784.9,310.8,1763.3,290.7,1763.3,262.7z M1845.1,262.7c0-20-13.8-35-33.4-35s-33.5,15-33.5,35s13.9,35,33.5,35
			S1845.1,282.7,1845.1,262.7z"/>
	</g>
	<line class="st1" x1="1197.6" y1="123.3" x2="1197.6" y2="402.2"/>
	<g>
		<g>
			<g>
				<path class="st0" d="M451.9,134.7c9.4,6.3,16.9,14.5,22.4,24.5c5.5,10,8.2,20.9,8.2,32.8v89.4h-30.6V249v-57c0-5.1-1-10-3-14.7
					s-4.7-8.7-8.2-12.2c-3.5-3.5-7.5-6.2-12.1-8.2c-4.6-2-9.4-3-14.6-3s-10.1,1-14.8,3c-4.7,2-8.7,4.7-12.1,8.2s-6.1,7.5-8,12.2
					c-2,4.7-3,9.6-3,14.7v57v32.4h-30.6V192v-68.6h30.6l0.2,11.3c5.3-3.6,11.2-6.3,17.7-8.3c6.4-2,13.1-3,20.1-3
					c6.9,0,13.6,1,20.1,3C440.6,128.4,446.5,131.1,451.9,134.7"/>
				<path class="st0" d="M583.9,124.3c10.9,0,21.1,2,30.6,6.1c9.5,4.1,17.8,9.7,24.9,16.8c7.1,7.1,12.7,15.4,16.8,25
					c4.1,9.5,6.1,19.7,6.1,30.6c0,10.9-2,21.1-6.1,30.6c-4.1,9.5-9.7,17.8-16.8,24.9c-7.1,7.1-15.4,12.7-24.9,16.8
					c-9.5,4.1-19.7,6.1-30.6,6.1c-10.9,0-21.1-2-30.6-6.1c-9.5-4.1-17.8-9.7-25-16.8c-7.1-7.1-12.7-15.4-16.8-24.9
					c-4.1-9.5-6.1-19.7-6.1-30.6c0-10.9,2-21.1,6.1-30.6c4.1-9.5,9.6-17.8,16.8-25c7.1-7.1,15.4-12.7,25-16.8
					C562.8,126.3,573,124.3,583.9,124.3 M584,250.5c6.5,0,12.7-1.2,18.5-3.7c5.8-2.5,10.9-5.9,15.2-10.2c4.3-4.4,7.7-9.4,10.2-15.3
					c2.5-5.8,3.7-12,3.7-18.6s-1.2-12.7-3.7-18.6c-2.5-5.8-5.9-10.9-10.2-15.3c-4.3-4.4-9.4-7.8-15.2-10.2c-5.8-2.5-12-3.7-18.5-3.7
					c-6.5,0-12.7,1.2-18.5,3.7c-5.8,2.5-10.9,5.9-15.2,10.2c-4.3,4.4-7.8,9.5-10.4,15.3c-2.6,5.8-3.8,12-3.8,18.6s1.3,12.7,3.8,18.6
					c2.6,5.8,6,10.9,10.4,15.3c4.3,4.4,9.4,7.8,15.2,10.2C571.3,249.3,577.5,250.5,584,250.5"/>
				<path class="st0" d="M771.4,208.7c2.8,4,4.9,8.3,6.5,12.9c1.6,4.7,2.3,9.6,2.1,14.7c-0.2,6.5-1.7,12.6-4.5,18.1
					c-2.8,5.5-6.4,10.4-11,14.6c-4.6,4.2-9.9,7.4-16,9.6c-6.1,2.3-12.6,3.3-19.3,3.1c-9.5-0.4-18.1-2.9-25.7-7.4
					c-7.6-4.6-13.4-10.6-17.4-18.1l25.5-17.8c1,3.6,3.2,6.6,6.5,9.1c3.4,2.5,7.3,3.7,11.9,3.7c5.1,0.2,9.6-1.2,13.5-4.3
					c3.9-3.1,5.8-6.9,5.8-11.4c0-1.4-0.1-2.4-0.3-3v-0.6c-0.2-0.4-0.3-0.7-0.3-1c0-0.3-0.1-0.6-0.3-1c-1.4-3.4-4-6.1-7.7-8.3
					c-0.6-0.4-1.5-0.8-2.7-1.2l0.3-0.3c-2.8-1.6-5.8-3.1-9.2-4.6c-3.4-1.5-6.8-3.1-10.2-4.8c-3.5-1.7-6.9-3.5-10.2-5.3
					c-3.4-1.9-6.5-4.1-9.5-6.7v-0.3l-0.9-0.9c-4.2-4-7.4-8.6-9.8-13.8c-2.4-5.2-3.5-10.8-3.3-16.8c0.2-5.9,1.6-11.5,4.2-16.6
					c2.6-5.1,6-9.6,10.2-13.4c4.3-3.8,9.3-6.7,15-8.9c5.7-2.2,11.9-3.2,18.4-3c8.5,0.4,16.2,2.5,23,6.2c6.8,3.8,12.2,8.8,16.2,15.2
					l-24.9,17.2c-1.2-2.2-3.1-4.1-5.8-5.6c-2.7-1.6-5.7-2.4-9.1-2.4c-4.6-0.2-8.5,0.9-11.7,3.3c-3.3,2.4-4.9,5.2-4.9,8.6
					c0,1,0.1,1.7,0.3,2.1c0.4,2.2,1.4,4.1,3,5.6c1.6,1.6,3.6,2.9,5.9,3.9c3.8,2.2,8.1,4.4,12.9,6.7c4.8,2.3,9.7,4.8,14.7,7.6
					c3.6,1.6,7.1,3.9,10.7,6.8l1.5,1.5C766.9,203.3,769,205.7,771.4,208.7"/>
				<path class="st0" d="M889.5,208.7c2.8,4,4.9,8.3,6.5,12.9c1.6,4.7,2.3,9.6,2.1,14.7c-0.2,6.5-1.7,12.6-4.5,18.1
					c-2.8,5.5-6.4,10.4-11,14.6c-4.6,4.2-9.9,7.4-16,9.6c-6.1,2.3-12.6,3.3-19.3,3.1c-9.5-0.4-18.1-2.9-25.7-7.4
					c-7.6-4.6-13.4-10.6-17.4-18.1l25.5-17.8c1,3.6,3.2,6.6,6.5,9.1c3.4,2.5,7.3,3.7,11.9,3.7c5.1,0.2,9.6-1.2,13.5-4.3
					c3.9-3.1,5.8-6.9,5.8-11.4c0-1.4-0.1-2.4-0.3-3v-0.6c-0.2-0.4-0.3-0.7-0.3-1c0-0.3-0.1-0.6-0.3-1c-1.4-3.4-4-6.1-7.7-8.3
					c-0.6-0.4-1.5-0.8-2.7-1.2l0.3-0.3c-2.8-1.6-5.8-3.1-9.2-4.6c-3.4-1.5-6.8-3.1-10.2-4.8c-3.5-1.7-6.9-3.5-10.2-5.3
					c-3.4-1.9-6.5-4.1-9.5-6.7v-0.3l-0.9-0.9c-4.2-4-7.4-8.6-9.8-13.8c-2.4-5.2-3.5-10.8-3.3-16.8c0.2-5.9,1.6-11.5,4.2-16.6
					c2.6-5.1,6-9.6,10.2-13.4c4.3-3.8,9.3-6.7,15-8.9c5.7-2.2,11.9-3.2,18.4-3c8.5,0.4,16.2,2.5,23,6.2c6.8,3.8,12.2,8.8,16.2,15.2
					l-25,17.2c-1.2-2.2-3.1-4.1-5.8-5.6c-2.7-1.6-5.7-2.4-9.1-2.4c-4.6-0.2-8.5,0.9-11.7,3.3c-3.3,2.4-4.9,5.2-4.9,8.6
					c0,1,0.1,1.7,0.3,2.1c0.4,2.2,1.4,4.1,3,5.6c1.6,1.6,3.6,2.9,5.9,3.9c3.8,2.2,8.1,4.4,12.9,6.7c4.9,2.3,9.7,4.8,14.7,7.6
					c3.6,1.6,7.1,3.9,10.7,6.8l1.5,1.5C885,203.3,887.1,205.7,889.5,208.7"/>
				<path class="st0" d="M995.9,124.6c10.9,0,21.1,2.1,30.7,6.2c9.6,4.2,18,9.8,25.2,16.9c7.2,7.1,12.9,15.5,17,25.2
					c4.1,9.7,6.2,20,6.2,30.9v76.9h-30.6v-14.4c-6.7,5.1-14.2,9.1-22.3,12.1c-8.1,2.9-16.8,4.4-26.1,4.4c-10.9,0-21.1-2.1-30.7-6.2
					c-9.6-4.2-18-9.8-25.1-16.9c-7.1-7.1-12.8-15.5-16.9-25.1c-4.2-9.6-6.2-19.8-6.2-30.7c0-10.9,2.1-21.2,6.2-30.9
					c4.2-9.7,9.8-18.1,16.9-25.2c7.1-7.1,15.5-12.8,25-16.9C974.8,126.7,985,124.6,995.9,124.6 M996,252.3c6.7,0,13-1.3,18.9-3.9
					c5.8-2.6,10.9-6.1,15.3-10.5c4.4-4.4,7.8-9.5,10.4-15.4c2.6-5.9,3.9-12.1,3.9-18.7c0-6.8-1.3-13.1-3.9-19
					c-2.6-5.9-6-11-10.4-15.4c-4.4-4.4-9.5-7.9-15.3-10.5c-5.8-2.6-12.1-3.9-18.9-3.9c-6.7,0-13,1.3-18.9,3.9
					c-5.8,2.6-10.9,6.1-15.3,10.5c-4.4,4.4-7.8,9.5-10.4,15.4c-2.6,5.9-3.9,12.2-3.9,19c0,6.6,1.3,12.8,3.9,18.7
					c2.6,5.9,6,11,10.4,15.4c4.4,4.4,9.5,7.9,15.3,10.5C983,251,989.3,252.3,996,252.3"/>
			</g>
			<g>
				<polygon class="st2" points="345.8,332.9 387,332.9 387,339.3 353,339.3 353,365.5 383.9,365.5 383.9,372.1 353,372.1 
					353,401.4 345.8,401.4 				"/>
				<path class="st2" d="M468.5,379.8l-10.6-26.2c-1.3-3.2-2.6-8-2.6-8.2c-0.1,0.2-1.4,4.9-2.7,8.1l-10.5,26.3H468.5z M454.7,332.2
					h1.2l29,69.3h-7.7L471,386h-31.5l-6.1,15.4h-7.2L454.7,332.2z"/>
				<path class="st2" d="M554.2,368.3c11.2,0,17.2-4.7,17.2-14.4c0-9.9-6.1-14.5-17.2-14.5h-12.9v28.9H554.2z M534.1,332.9h20.6
					c14.3,0,24.4,6.8,24.4,21c0,10.1-5.5,16.6-14.4,19.4l16.7,28.2h-8.6l-15.7-27c-1,0.1-2.1,0.1-3.2,0.1h-12.5v26.9h-7.3V332.9z"/>
				<path class="st2" d="M631.4,332.1h1l31.9,39.8l31.7-39.8h1.1v69.4H690v-45.3c0-3,0.3-7.6,0.3-7.8c-0.2,0.2-2.7,4.4-4.8,7.1
					l-20.8,26.2h-1.2L643,355.5c-2.1-2.5-4.7-6.7-4.9-7.1c0,0.1,0.4,4.7,0.4,7.8v45.3h-7.1V332.1z"/>
				<path class="st2" d="M779.5,306.4h8.1l-9.4,19.5h-5.5L779.5,306.4z M788.5,379.8l-10.6-26.2c-1.3-3.2-2.6-8-2.6-8.2
					c-0.1,0.2-1.4,4.9-2.7,8.1l-10.5,26.3H788.5z M774.7,332.2h1.2l29,69.3h-7.7L791,386h-31.5l-6.1,15.4h-7.2L774.7,332.2z"/>
				<path class="st2" d="M845.6,367.1c0-20.7,15.7-35.1,35.2-35.1c12.1,0,21.4,4.5,27.2,13.3l-5.5,4c-4.4-6.6-11.8-10.8-21.7-10.8
					c-16,0-27.6,12.2-27.6,28.5c0,16.3,11.6,28.5,27.6,28.5c10,0,17.6-4.3,22.6-11.5l5.6,3.9c-6,8.9-15.9,14.1-28.2,14.1
					C861.4,402.2,845.6,387.8,845.6,367.1"/>
				<rect x="959.2" y="332.9" class="st2" width="7.4" height="68.6"/>
				<path class="st2" d="M1058.3,379.8l-10.6-26.2c-1.3-3.2-2.6-8-2.6-8.2c-0.1,0.2-1.4,4.9-2.7,8.1l-10.5,26.3H1058.3z
					 M1044.5,332.2h1.2l29,69.3h-7.7l-6.3-15.4h-31.5l-6.2,15.4h-7.2L1044.5,332.2z"/>
			</g>
		</g>
		<g>
			<polygon id="XMLID_41_" class="st0" points="111.7,97.8 161.6,149.4 215.6,97.8 			"/>
			<polygon id="XMLID_40_" class="st3" points="111.6,97.8 111.6,199.4 161.5,149.4 			"/>
			<polygon id="XMLID_39_" class="st4" points="215.6,97.8 161.6,149.4 215.6,149.4 			"/>
			<polygon id="XMLID_38_" class="st0" points="60,249.2 60,145.2 111.7,199.3 			"/>
			<polygon id="XMLID_37_" class="st3" points="161.6,249.2 111.7,199.3 60,249.2 			"/>
			<polygon id="XMLID_36_" class="st4" points="111.7,199.3 111.7,145.2 60,145.2 			"/>
			<polygon id="XMLID_35_" class="st0" points="211.5,300.9 107.6,300.9 161.6,249.2 			"/>
			<polygon id="XMLID_34_" class="st3" points="211.5,199.3 161.6,249.2 211.5,300.9 			"/>
			<polygon id="XMLID_33_" class="st4" points="161.6,249.2 107.5,249.2 107.5,300.9 			"/>
			<polygon id="XMLID_32_" class="st0" points="263.2,149.4 263.2,253.4 211.6,199.3 			"/>
			<polygon id="XMLID_31_" class="st3" points="161.6,149.4 211.6,199.3 263.2,149.4 			"/>
			<polygon id="XMLID_30_" class="st4" points="211.6,199.3 211.6,253.4 263.2,253.4 			"/>
		</g>
	</g>
</g>
</svg>
